<svg xmlns="http://www.w3.org/2000/svg" version="1.1" xmlns:xlink="http://www.w3.org/1999/xlink" xmlns:svgjs="http://svgjs.dev/svgjs" width="1000" height="169" viewBox="0 0 1000 169"><g transform="matrix(1,0,0,1,1.6695909793221517,0.10766809746596095)"><svg viewBox="0 0 396 67" data-background-color="#046380" preserveAspectRatio="xMidYMid meet" height="169" width="1000" xmlns="http://www.w3.org/2000/svg" xmlns:xlink="http://www.w3.org/1999/xlink"><defs></defs><g id="tight-bounds" transform="matrix(1,0,0,1,0.24082430230316731,0.10276458403598099)"><svg viewBox="0 0 395.52 62.8641760575424" height="62.8641760575424" width="395.52"><g><svg viewBox="0 0 544.3938272029651 86.52626769297764" height="62.8641760575424" width="395.52"><g><rect width="4.611027051519083" height="86.52626769297764" x="132.19204870767882" y="0" fill="#ffffff" opacity="1" stroke-width="0" stroke="transparent" fill-opacity="1" class="rect-o-0" data-fill-palette-color="primary" rx="1%" id="o-0" data-palette-color="#ffffff"></rect></g><g transform="matrix(1,0,0,1,148.87382720296512,0.21523947187307613)"><svg viewBox="0 0 395.52 86.09578874923149" height="86.09578874923149" width="395.52"><g><svg viewBox="0 0 395.52 86.09578874923149" height="86.09578874923149" width="395.52"><g><svg viewBox="0 0 395.52 55.3798818263205" height="55.3798818263205" width="395.52"><g transform="matrix(1,0,0,1,0,0)"><svg width="395.52" viewBox="4.100000381469727 -35.5 279.25 36.10000228881836" height="55.3798818263205" data-palette-color="#ffffff"><svg></svg><g class="undefined-text-0" data-fill-palette-color="primary" id="text-0"><path d="M30.45 0v-25.05h-0.2l-2.7 5.55-7.15 13.2-7.15-13.2-2.7-5.55h-0.2v25.05h-6.25v-34.9h7.45l8.95 17.05h0.2l8.85-17.05h7.15v34.9zM58.6 0.6v0c-2.3 0-4.383-0.383-6.25-1.15-1.867-0.767-3.457-1.917-4.77-3.45-1.32-1.533-2.347-3.417-3.08-5.65-0.733-2.233-1.1-4.833-1.1-7.8v0c0-2.933 0.367-5.527 1.1-7.78 0.733-2.247 1.76-4.137 3.08-5.67 1.313-1.533 2.903-2.683 4.77-3.45 1.867-0.767 3.95-1.15 6.25-1.15v0c2.3 0 4.383 0.383 6.25 1.15 1.867 0.767 3.467 1.917 4.8 3.45 1.333 1.533 2.36 3.423 3.08 5.67 0.713 2.253 1.07 4.847 1.07 7.78v0c0 2.967-0.357 5.567-1.07 7.8-0.72 2.233-1.747 4.117-3.08 5.65-1.333 1.533-2.933 2.683-4.8 3.45-1.867 0.767-3.95 1.15-6.25 1.15zM58.6-5.25v0c2.5 0 4.493-0.833 5.98-2.5 1.48-1.667 2.22-4 2.22-7v0-5.4c0-3-0.74-5.333-2.22-7-1.487-1.667-3.48-2.5-5.98-2.5v0c-2.5 0-4.49 0.833-5.97 2.5-1.487 1.667-2.23 4-2.23 7v0 5.4c0 3 0.743 5.333 2.23 7 1.48 1.667 3.47 2.5 5.97 2.5zM106.85 0v-25.05h-0.2l-2.7 5.55-7.15 13.2-7.15-13.2-2.7-5.55h-0.2v25.05h-6.25v-34.9h7.45l8.95 17.05h0.2l8.85-17.05h7.15v34.9zM144.3 0h-23v-34.9h23v5.85h-16.4v8.45h14.5v5.85h-14.5v8.9h16.4zM171.8 0l-10.5-17.9-3.6-7.25h-0.15v25.15h-6.25v-34.9h7.25l10.5 17.9 3.6 7.25h0.15v-25.15h6.25v34.9zM210.85-29.05h-9.9v29.05h-6.6v-29.05h-9.9v-5.85h26.4zM216-34.9h6.5v21.45c0 2.733 0.527 4.783 1.58 6.15 1.047 1.367 2.82 2.05 5.32 2.05v0c2.5 0 4.277-0.683 5.33-2.05 1.047-1.367 1.57-3.417 1.57-6.15v0-21.45h6.5v20.6c0 2.567-0.24 4.783-0.72 6.65-0.487 1.867-1.263 3.417-2.33 4.65-1.067 1.233-2.457 2.14-4.17 2.72-1.72 0.587-3.797 0.88-6.23 0.88v0c-2.467 0-4.54-0.293-6.22-0.88-1.687-0.58-3.063-1.487-4.13-2.72-1.067-1.233-1.833-2.783-2.3-4.65-0.467-1.867-0.7-4.083-0.7-6.65v0zM277.1 0v-25.05h-0.2l-2.7 5.55-7.15 13.2-7.15-13.2-2.7-5.55h-0.2v25.05h-6.25v-34.9h7.45l8.95 17.05h0.2l8.85-17.05h7.15v34.9z" data-fill-palette-color="primary" fill="#ffffff" opacity="1"></path></g></svg></g></svg></g><g transform="matrix(1,0,0,1,0,67.45063327008774)"><svg viewBox="0 0 232.209792 18.645155479143753" height="18.645155479143753" width="232.209792"><g transform="matrix(1,0,0,1,0,0)"><svg width="232.209792" viewBox="1.25 -36.29999923706055 590.8800048828125 47.44999694824219" height="18.645155479143753" data-palette-color="#ffffff"><path d="M9.4 10.05L3.7 11.05 3.7-12.6Q3.7-15.6 3.3-17.63 2.9-19.65 2.45-20.9L2.45-20.9Q1.9-22.35 1.25-23.25L1.25-23.25 5.75-25.05Q6.35-24.45 6.85-23.55L6.85-23.55Q7.25-22.8 7.65-21.73 8.05-20.65 8.25-19.2L8.25-19.2Q9.1-22.2 10.95-23.75 12.8-25.3 16.1-25.3L16.1-25.3Q18.45-25.3 20.18-24.43 21.9-23.55 23.03-21.93 24.15-20.3 24.7-18 25.25-15.7 25.25-12.9L25.25-12.9Q25.25-10.05 24.4-7.63 23.55-5.2 21.98-3.45 20.4-1.7 18.2-0.7 16 0.3 13.3 0.3L13.3 0.3Q12.35 0.3 11.38 0.2 10.4 0.1 9.4 0L9.4 0 9.4 10.05ZM15.15-21.3Q13.9-21.3 12.85-20.45 11.8-19.6 11.03-18.2 10.25-16.8 9.83-15.05 9.4-13.3 9.4-11.45L9.4-11.45 9.4-4.25Q9.9-4.1 10.9-3.9 11.9-3.7 12.65-3.7L12.65-3.7Q14.55-3.7 15.8-4.35 17.05-5 17.8-6.15 18.55-7.3 18.85-8.9 19.15-10.5 19.15-12.4L19.15-12.4Q19.15-14.15 19.05-15.75 18.95-17.35 18.53-18.6 18.1-19.85 17.3-20.58 16.5-21.3 15.15-21.3L15.15-21.3ZM41.45-19.7Q40.55-19.7 39.65-19.25 38.75-18.8 38.05-18.03 37.35-17.25 36.9-16.15 36.45-15.05 36.45-13.7L36.45-13.7 36.45 0 30.75 0 30.75-12.6Q30.75-15.6 30.35-17.63 29.95-19.65 29.5-20.9L29.5-20.9Q28.95-22.35 28.3-23.25L28.3-23.25 32.8-25.05Q33.25-24.5 33.75-23.7L33.75-23.7Q34.15-23 34.55-22.05 34.95-21.1 35.2-19.8L35.2-19.8Q36.2-22.7 38.1-23.98 40-25.25 42.4-25.25L42.4-25.25Q43.55-25.25 44.55-24.98 45.55-24.7 45.5-24.7L45.5-24.7 43.9-19.15Q43.95-19.15 43.32-19.43 42.7-19.7 41.45-19.7L41.45-19.7ZM57.15-25.5Q62.9-25.5 65.5-22.1 68.09-18.7 68.09-12.75L68.09-12.75Q68.09-9.95 67.4-7.53 66.7-5.1 65.27-3.33 63.85-1.55 61.7-0.53 59.55 0.5 56.7 0.5L56.7 0.5Q53.85 0.5 51.77-0.38 49.7-1.25 48.35-2.9 47-4.55 46.37-6.9 45.75-9.25 45.75-12.2L45.75-12.2Q45.75-15.05 46.45-17.48 47.15-19.9 48.57-21.68 50-23.45 52.15-24.48 54.3-25.5 57.15-25.5L57.15-25.5ZM56.65-21.3Q55.2-21.3 54.27-20.65 53.35-20 52.82-18.82 52.3-17.65 52.1-16.07 51.9-14.5 51.9-12.7L51.9-12.7Q51.9-10.85 52.12-9.2 52.35-7.55 52.95-6.33 53.55-5.1 54.57-4.4 55.6-3.7 57.2-3.7L57.2-3.7Q58.65-3.7 59.57-4.35 60.5-5 61.02-6.18 61.55-7.35 61.75-8.9 61.95-10.45 61.95-12.25L61.95-12.25Q61.95-14.1 61.72-15.75 61.5-17.4 60.9-18.65 60.3-19.9 59.27-20.6 58.25-21.3 56.65-21.3L56.65-21.3ZM95.59-1.4L91.14 0.4Q91.04 0.35 90.69-0.08 90.34-0.5 89.92-1.25 89.49-2 89.09-3.13 88.69-4.25 88.59-5.75L88.59-5.75Q87.74-2.75 85.87-1.23 83.99 0.3 80.79 0.3L80.79 0.3Q78.44 0.3 76.72-0.58 74.99-1.45 73.84-3.08 72.69-4.7 72.14-7 71.59-9.3 71.59-12.1L71.59-12.1Q71.59-14.95 72.47-17.38 73.34-19.8 74.92-21.55 76.49-23.3 78.69-24.3 80.89-25.3 83.54-25.3L83.54-25.3Q84.44-25.3 85.47-25.2 86.49-25.1 87.49-24.95L87.49-24.95 87.49-36.25 93.19-35.25 93.19-12.05Q93.19-9.05 93.54-7.08 93.89-5.1 94.34-3.88 94.79-2.65 95.17-2.1 95.54-1.55 95.59-1.4L95.59-1.4ZM81.74-3.75Q82.99-3.75 84.04-4.6 85.09-5.45 85.87-6.83 86.64-8.2 87.07-9.95 87.49-11.7 87.49-13.55L87.49-13.55 87.49-20.75Q86.99-20.9 85.99-21.1 84.99-21.3 84.19-21.3L84.19-21.3Q82.29-21.3 81.07-20.65 79.84-20 79.09-18.85 78.34-17.7 78.04-16.1 77.74-14.5 77.74-12.6L77.74-12.6Q77.74-10.85 77.84-9.25 77.94-7.65 78.37-6.43 78.79-5.2 79.59-4.48 80.39-3.75 81.74-3.75L81.74-3.75ZM114.69-12.7L114.69-24.9 120.39-24.9 120.39-12.05Q120.39-9.05 120.77-7.03 121.14-5 121.59-3.75L121.59-3.75Q122.14-2.25 122.79-1.4L122.79-1.4 118.34 0.4Q117.74-0.15 117.24-1L117.24-1Q116.84-1.7 116.42-2.73 115.99-3.75 115.84-5.15L115.84-5.15Q114.49-2.2 112.04-0.95 109.59 0.3 106.94 0.3L106.94 0.3Q102.99 0.3 101.31-2 99.64-4.3 99.64-8.3L99.64-8.3 99.64-24.9 105.34-24.9 105.34-8.4Q105.34-6.3 106.09-5.1 106.84-3.9 108.64-3.9L108.64-3.9Q109.74-3.9 110.81-4.53 111.89-5.15 112.77-6.3 113.64-7.45 114.17-9.08 114.69-10.7 114.69-12.7L114.69-12.7ZM144.04-22.1L140.84-19.05Q140.09-19.9 139.31-20.5 138.54-21.1 137.24-21.1L137.24-21.1Q136.49-21.1 135.56-20.88 134.64-20.65 133.84-19.78 133.04-18.9 132.51-17.2 131.99-15.5 131.99-12.6L131.99-12.6Q131.99-9.65 132.51-7.93 133.04-6.2 133.86-5.25 134.69-4.3 135.64-4.03 136.59-3.75 137.49-3.75L137.49-3.75Q138.19-3.75 138.94-3.88 139.69-4 140.39-4.17 141.09-4.35 141.61-4.5 142.14-4.65 142.39-4.75L142.39-4.75 143.79-1.15Q143.64-1.1 143.11-0.85 142.59-0.6 141.69-0.35 140.79-0.1 139.54 0.13 138.29 0.35 136.74 0.35L136.74 0.35Q133.84 0.35 131.79-0.53 129.74-1.4 128.41-3 127.09-4.6 126.46-6.85 125.84-9.1 125.84-11.85L125.84-11.85Q125.84-15.15 126.71-17.7 127.59-20.25 129.14-21.98 130.69-23.7 132.79-24.6 134.89-25.5 137.29-25.5L137.29-25.5Q139.64-25.5 141.26-24.6 142.89-23.7 144.04-22.1L144.04-22.1ZM145.09-20.85L145.09-24.9 149.59-24.9 150.59-30.75 155.28-31.8 155.28-24.9 161.44-24.9 160.74-20.85 155.28-20.85 155.28-6.05Q155.28-4.75 155.99-4.38 156.69-4 157.53-4L157.53-4Q158.24-4 158.94-4.1 159.64-4.2 160.19-4.35L160.19-4.35Q160.84-4.5 161.44-4.7L161.44-4.7 162.39-0.95 161.94-0.8Q161.49-0.6 160.61-0.38 159.74-0.15 158.56 0.03 157.39 0.2 155.99 0.2L155.99 0.2Q154.59 0.2 153.41-0.1 152.24-0.4 151.39-1.07 150.53-1.75 150.06-2.8 149.59-3.85 149.59-5.4L149.59-5.4 149.59-20.85 145.09-20.85ZM193.03-24.9L198.83-24.9 198.93-24.5Q198.98-24.05 199.08-23.33 199.18-22.6 199.26-21.68 199.33-20.75 199.33-19.8L199.33-19.8Q199.33-14.25 198.51-10.43 197.68-6.6 196.01-4.23 194.33-1.85 191.76-0.8 189.18 0.25 185.68 0.25L185.68 0.25Q181.73 0.25 180.06-2.02 178.38-4.3 178.38-8.3L178.38-8.3 178.38-24.9 184.08-24.9 184.08-8.45Q184.08-6.35 184.83-5.05 185.58-3.75 187.38-3.75L187.38-3.75Q189.18-3.75 190.38-5.1 191.58-6.45 192.28-8.63 192.98-10.8 193.28-13.58 193.58-16.35 193.58-19.2L193.58-19.2Q193.58-20.25 193.51-21.28 193.43-22.3 193.31-23.1 193.18-23.9 193.13-24.4L193.13-24.4 193.03-24.9ZM203.33-11.85Q203.33-15.2 204.25-17.75 205.18-20.3 206.8-22.03 208.43-23.75 210.63-24.63 212.83-25.5 215.38-25.5L215.38-25.5Q217.63-25.5 219.2-24.95 220.78-24.4 221.78-23.45 222.78-22.5 223.25-21.2 223.73-19.9 223.73-18.4L223.73-18.4Q223.73-16.6 222.73-14.98 221.73-13.35 219.85-12.13 217.98-10.9 215.33-10.18 212.68-9.45 209.38-9.4L209.38-9.4Q209.53-8.25 209.85-7.23 210.18-6.2 210.8-5.43 211.43-4.65 212.43-4.2 213.43-3.75 214.93-3.75L214.93-3.75Q216.03-3.75 217.28-4 218.53-4.25 219.58-4.6L219.58-4.6Q220.83-5 222.03-5.5L222.03-5.5 223.53-1.95Q222.23-1.3 220.73-0.8L220.73-0.8Q219.43-0.35 217.73 0 216.03 0.35 214.13 0.35L214.13 0.35Q211.23 0.35 209.18-0.53 207.13-1.4 205.83-3 204.53-4.6 203.93-6.85 203.33-9.1 203.33-11.85L203.33-11.85ZM214.93-21.6Q213.28-21.6 212.2-20.83 211.13-20.05 210.48-18.82 209.83-17.6 209.55-16.07 209.28-14.55 209.23-13L209.23-13Q211.63-13.1 213.3-13.63 214.98-14.15 216.03-14.93 217.08-15.7 217.55-16.6 218.03-17.5 218.03-18.4L218.03-18.4Q218.03-19.85 217.18-20.73 216.33-21.6 214.93-21.6L214.93-21.6ZM233.78 0.2Q230.93 0.2 229.58-1.38 228.23-2.95 228.23-5.4L228.23-5.4 228.23-35.25 233.93-36.3 233.93-5.95Q233.93-4.8 234.38-4.35 234.83-3.9 235.68-3.9L235.68-3.9Q236.18-3.9 236.65-3.95 237.13-4 237.53-4.1L237.53-4.1Q237.98-4.2 238.33-4.3L238.33-4.3 239.03-0.7Q238.38-0.45 237.58-0.25L237.58-0.25Q236.88-0.05 235.93 0.08 234.98 0.2 233.78 0.2L233.78 0.2ZM252.17-25.5Q257.92-25.5 260.52-22.1 263.12-18.7 263.12-12.75L263.12-12.75Q263.12-9.95 262.42-7.53 261.72-5.1 260.3-3.33 258.87-1.55 256.72-0.53 254.57 0.5 251.72 0.5L251.72 0.5Q248.87 0.5 246.8-0.38 244.72-1.25 243.37-2.9 242.02-4.55 241.4-6.9 240.77-9.25 240.77-12.2L240.77-12.2Q240.77-15.05 241.47-17.48 242.17-19.9 243.6-21.68 245.02-23.45 247.17-24.48 249.32-25.5 252.17-25.5L252.17-25.5ZM251.67-21.3Q250.22-21.3 249.3-20.65 248.37-20 247.85-18.82 247.32-17.65 247.12-16.07 246.92-14.5 246.92-12.7L246.92-12.7Q246.92-10.85 247.15-9.2 247.37-7.55 247.97-6.33 248.57-5.1 249.6-4.4 250.62-3.7 252.22-3.7L252.22-3.7Q253.67-3.7 254.6-4.35 255.52-5 256.05-6.18 256.57-7.35 256.77-8.9 256.97-10.45 256.97-12.25L256.97-12.25Q256.97-14.1 256.75-15.75 256.52-17.4 255.92-18.65 255.32-19.9 254.3-20.6 253.27-21.3 251.67-21.3L251.67-21.3ZM284.82-22.1L281.62-19.05Q280.87-19.9 280.1-20.5 279.32-21.1 278.02-21.1L278.02-21.1Q277.27-21.1 276.35-20.88 275.42-20.65 274.62-19.78 273.82-18.9 273.3-17.2 272.77-15.5 272.77-12.6L272.77-12.6Q272.77-9.65 273.3-7.93 273.82-6.2 274.65-5.25 275.47-4.3 276.42-4.03 277.37-3.75 278.27-3.75L278.27-3.75Q278.97-3.75 279.72-3.88 280.47-4 281.17-4.17 281.87-4.35 282.4-4.5 282.92-4.65 283.17-4.75L283.17-4.75 284.57-1.15Q284.42-1.1 283.9-0.85 283.37-0.6 282.47-0.35 281.57-0.1 280.32 0.13 279.07 0.35 277.52 0.35L277.52 0.35Q274.62 0.35 272.57-0.53 270.52-1.4 269.2-3 267.87-4.6 267.25-6.85 266.62-9.1 266.62-11.85L266.62-11.85Q266.62-15.15 267.5-17.7 268.37-20.25 269.92-21.98 271.47-23.7 273.57-24.6 275.67-25.5 278.07-25.5L278.07-25.5Q280.42-25.5 282.05-24.6 283.67-23.7 284.82-22.1L284.82-22.1ZM293.87 0.2Q291.22 0.2 289.82-1.38 288.42-2.95 288.42-5.45L288.42-5.45 288.42-24.9 294.12-24.9 294.12-5.95Q294.12-4.8 294.47-4.4 294.82-4 295.52-4L295.52-4Q295.72-4 295.94-4 296.17-4 296.37-4.05L296.37-4.05Q296.57-4.05 296.82-4.1L296.82-4.1 297.42-0.5Q297.07-0.3 296.52-0.15L296.52-0.15Q296.07 0 295.39 0.1 294.72 0.2 293.87 0.2L293.87 0.2ZM291.37-36Q292.97-36 293.82-35.05 294.67-34.1 294.67-32.6L294.67-32.6Q294.67-31.1 293.79-30.1 292.92-29.1 291.22-29.1L291.22-29.1Q289.62-29.1 288.74-30.08 287.87-31.05 287.87-32.45L287.87-32.45Q287.87-34 288.74-35 289.62-36 291.37-36L291.37-36ZM298.47-20.85L298.47-24.9 302.97-24.9 303.97-30.75 308.67-31.8 308.67-24.9 314.82-24.9 314.12-20.85 308.67-20.85 308.67-6.05Q308.67-4.75 309.37-4.38 310.07-4 310.92-4L310.92-4Q311.62-4 312.32-4.1 313.02-4.2 313.57-4.35L313.57-4.35Q314.22-4.5 314.82-4.7L314.82-4.7 315.77-0.95 315.32-0.8Q314.87-0.6 313.99-0.38 313.12-0.15 311.94 0.03 310.77 0.2 309.37 0.2L309.37 0.2Q307.97 0.2 306.79-0.1 305.62-0.4 304.77-1.07 303.92-1.75 303.44-2.8 302.97-3.85 302.97-5.4L302.97-5.4 302.97-20.85 298.47-20.85ZM339.86-24.9L339.61-10.1Q339.61-8.6 339.84-7.35 340.06-6.1 340.34-4.88 340.61-3.65 340.86-2.4 341.11-1.15 341.11 0.35L341.11 0.35Q341.11 5.65 338.41 8.25 335.71 10.85 331.11 10.85L331.11 10.85Q329.61 10.85 328.11 10.58 326.61 10.3 325.34 9.95 324.06 9.6 323.16 9.25 322.26 8.9 321.96 8.75L321.96 8.75 323.36 4.4Q324.06 4.7 324.94 5.03 325.81 5.35 326.74 5.65 327.66 5.95 328.66 6.15 329.66 6.35 330.61 6.35L330.61 6.35Q333.41 6.35 334.66 4.67 335.91 3 335.91 0.35L335.91 0.35Q335.91-2.05 334.91-4.6L334.91-4.6Q333.51-1.95 331.19-0.83 328.86 0.3 326.31 0.3L326.31 0.3Q322.36 0.3 320.69-2 319.01-4.3 319.01-8.3L319.01-8.3 319.01-24.9 324.71-24.9 324.71-8.45Q324.71-6.35 325.46-5.15 326.21-3.95 328.01-3.95L328.01-3.95Q328.96-3.95 330.04-4.5 331.11-5.05 331.99-6.03 332.86-7 333.44-8.38 334.01-9.75 334.01-11.35L334.01-11.35 334.01-24.9 339.86-24.9ZM358.91-1.15L358.91-35.25 364.61-36.25 364.61-21Q365.51-23.05 367.13-24.18 368.76-25.3 371.31-25.3L371.31-25.3Q373.66-25.3 375.38-24.43 377.11-23.55 378.26-21.93 379.41-20.3 379.96-18 380.51-15.7 380.51-12.9L380.51-12.9Q380.51-10.05 379.63-7.63 378.76-5.2 377.18-3.45 375.61-1.7 373.41-0.7 371.21 0.3 368.56 0.3L368.56 0.3Q367.06 0.3 365.36 0.08 363.66-0.15 362.21-0.4L362.21-0.4Q360.56-0.7 358.91-1.15L358.91-1.15ZM370.36-21.3Q369.11-21.3 368.06-20.45 367.01-19.6 366.23-18.2 365.46-16.8 365.03-15.05 364.61-13.3 364.61-11.45L364.61-11.45 364.61-4.2Q365.06-4.1 366.06-3.9 367.06-3.7 367.91-3.7L367.91-3.7Q369.76-3.7 371.01-4.35 372.26-5 373.01-6.15 373.76-7.3 374.06-8.9 374.36-10.5 374.36-12.4L374.36-12.4Q374.36-14.15 374.26-15.75 374.16-17.35 373.73-18.6 373.31-19.85 372.51-20.58 371.71-21.3 370.36-21.3L370.36-21.3ZM406.11-24.9L405.86-10.1Q405.86-8.6 406.08-7.35 406.31-6.1 406.58-4.88 406.86-3.65 407.11-2.4 407.36-1.15 407.36 0.35L407.36 0.35Q407.36 5.65 404.66 8.25 401.96 10.85 397.36 10.85L397.36 10.85Q395.86 10.85 394.36 10.58 392.86 10.3 391.58 9.95 390.31 9.6 389.41 9.25 388.51 8.9 388.21 8.75L388.21 8.75 389.61 4.4Q390.31 4.7 391.18 5.03 392.06 5.35 392.98 5.65 393.91 5.95 394.91 6.15 395.91 6.35 396.86 6.35L396.86 6.35Q399.66 6.35 400.91 4.67 402.16 3 402.16 0.35L402.16 0.35Q402.16-2.05 401.16-4.6L401.16-4.6Q399.76-1.95 397.43-0.83 395.11 0.3 392.56 0.3L392.56 0.3Q388.61 0.3 386.93-2 385.26-4.3 385.26-8.3L385.26-8.3 385.26-24.9 390.96-24.9 390.96-8.45Q390.96-6.35 391.71-5.15 392.46-3.95 394.26-3.95L394.26-3.95Q395.21-3.95 396.28-4.5 397.36-5.05 398.23-6.03 399.11-7 399.68-8.38 400.26-9.75 400.26-11.35L400.26-11.35 400.26-24.9 406.11-24.9ZM436.3-19.7Q435.4-19.7 434.5-19.25 433.6-18.8 432.9-18.03 432.2-17.25 431.75-16.15 431.3-15.05 431.3-13.7L431.3-13.7 431.3 0 425.6 0 425.6-12.6Q425.6-15.6 425.2-17.63 424.8-19.65 424.35-20.9L424.35-20.9Q423.8-22.35 423.15-23.25L423.15-23.25 427.65-25.05Q428.1-24.5 428.6-23.7L428.6-23.7Q429-23 429.4-22.05 429.8-21.1 430.05-19.8L430.05-19.8Q431.05-22.7 432.95-23.98 434.85-25.25 437.25-25.25L437.25-25.25Q438.4-25.25 439.4-24.98 440.4-24.7 440.35-24.7L440.35-24.7 438.75-19.15Q438.8-19.15 438.18-19.43 437.55-19.7 436.3-19.7L436.3-19.7ZM448.85 0.2Q446.2 0.2 444.8-1.38 443.4-2.95 443.4-5.45L443.4-5.45 443.4-24.9 449.1-24.9 449.1-5.95Q449.1-4.8 449.45-4.4 449.8-4 450.5-4L450.5-4Q450.7-4 450.92-4 451.15-4 451.35-4.05L451.35-4.05Q451.55-4.05 451.8-4.1L451.8-4.1 452.4-0.5Q452.05-0.3 451.5-0.15L451.5-0.15Q451.05 0 450.37 0.1 449.7 0.2 448.85 0.2L448.85 0.2ZM446.35-36Q447.95-36 448.8-35.05 449.65-34.1 449.65-32.6L449.65-32.6Q449.65-31.1 448.77-30.1 447.9-29.1 446.2-29.1L446.2-29.1Q444.6-29.1 443.72-30.08 442.85-31.05 442.85-32.45L442.85-32.45Q442.85-34 443.72-35 444.6-36 446.35-36L446.35-36ZM463.75-25.5L463.75-25.5Q465.2-25.5 466.6-25.2 468-24.9 469.1-24.5L469.1-24.5Q470.4-24.05 471.5-23.55L471.5-23.55 469.8-19.65Q468.8-20.1 467.8-20.45L467.8-20.45Q466.95-20.75 465.92-21.03 464.9-21.3 463.9-21.3L463.9-21.3Q462.75-21.3 461.92-20.75 461.1-20.2 461.1-19.1L461.1-19.1Q461.1-16.25 465.25-14.65L465.25-14.65Q466.8-14.05 468.05-13.38 469.3-12.7 470.17-11.8 471.05-10.9 471.5-9.73 471.95-8.55 471.95-6.95L471.95-6.95Q471.95-5.55 471.37-4.2 470.8-2.85 469.67-1.8 468.55-0.75 466.92-0.13 465.3 0.5 463.25 0.5L463.25 0.5Q461.6 0.5 460 0.13 458.4-0.25 457.12-0.7 455.85-1.15 455.1-1.55L455.1-1.55 454.35-1.9 456.2-6.1 456.85-5.75Q457.5-5.35 458.5-4.9 459.5-4.45 460.65-4.08 461.8-3.7 462.75-3.7L462.75-3.7Q464.5-3.7 465.35-4.4 466.2-5.1 466.2-6.25L466.2-6.25Q466.2-7.55 465.27-8.63 464.35-9.7 462.5-10.4L462.5-10.4Q458.65-11.85 456.97-13.7 455.3-15.55 455.3-18.5L455.3-18.5Q455.3-19.9 455.95-21.18 456.6-22.45 457.72-23.43 458.85-24.4 460.4-24.95 461.95-25.5 463.75-25.5ZM476.99-35.25L482.69-36.25 482.69-22Q483.09-22.5 483.72-23.08 484.34-23.65 485.29-24.15 486.24-24.65 487.49-25 488.74-25.35 490.39-25.35L490.39-25.35Q491.94-25.35 493.29-24.9 494.64-24.45 495.62-23.6 496.59-22.75 497.17-21.53 497.74-20.3 497.74-18.75L497.74-18.75Q497.74-16.5 496.82-15.05 495.89-13.6 494.74-12.75L494.74-12.75Q493.44-11.75 491.74-11.15L491.74-11.15 498.74 0 492.29 0 485.09-12.45 485.04-12.95Q485.44-13.05 486.57-13.4 487.69-13.75 488.89-14.4 490.09-15.05 491.02-16.03 491.94-17 491.94-18.35L491.94-18.35Q491.94-19.8 491.09-20.55 490.24-21.3 488.84-21.3L488.84-21.3Q486.94-21.3 485.74-20.55 484.54-19.8 483.87-18.85 483.19-17.9 482.94-17.05 482.69-16.2 482.69-16.05L482.69-16.05 482.69 0 476.99 0 476.99-35.25ZM508.24 0.2Q505.59 0.2 504.19-1.38 502.79-2.95 502.79-5.45L502.79-5.45 502.79-24.9 508.49-24.9 508.49-5.95Q508.49-4.8 508.84-4.4 509.19-4 509.89-4L509.89-4Q510.09-4 510.32-4 510.54-4 510.74-4.05L510.74-4.05Q510.94-4.05 511.19-4.1L511.19-4.1 511.79-0.5Q511.44-0.3 510.89-0.15L510.89-0.15Q510.44 0 509.77 0.1 509.09 0.2 508.24 0.2L508.24 0.2ZM505.74-36Q507.34-36 508.19-35.05 509.04-34.1 509.04-32.6L509.04-32.6Q509.04-31.1 508.17-30.1 507.29-29.1 505.59-29.1L505.59-29.1Q503.99-29.1 503.12-30.08 502.24-31.05 502.24-32.45L502.24-32.45Q502.24-34 503.12-35 503.99-36 505.74-36L505.74-36ZM531.19-34L528.74-30.75Q528.59-30.9 527.81-31.3 527.04-31.7 526.34-31.7L526.34-31.7Q525.89-31.7 525.24-31.58 524.59-31.45 523.99-31.03 523.39-30.6 522.96-29.8 522.54-29 522.54-27.7L522.54-27.7Q522.54-27.15 522.61-26.45 522.69-25.75 522.94-24.9L522.94-24.9 529.14-24.9 528.44-20.85 523.24-20.85 523.24-1.25Q523.24 1.75 522.46 3.78 521.69 5.8 520.44 7.18 519.19 8.55 517.66 9.47 516.14 10.4 514.64 11.15L514.64 11.15 512.34 7.35Q514.19 6.4 515.24 5.33 516.29 4.25 516.81 3.18 517.34 2.1 517.44 1.1 517.54 0.1 517.54-0.7L517.54-0.7 517.54-20.85 513.04-20.85 513.04-24.9 517.39-24.9Q517.19-25.65 517.11-26.45 517.04-27.25 517.04-27.95L517.04-27.95Q517.04-29.95 517.76-31.5 518.49-33.05 519.71-34.05 520.94-35.05 522.56-35.58 524.19-36.1 525.94-36.1L525.94-36.1Q527.89-36.1 529.14-35.48 530.39-34.85 531.19-34L531.19-34ZM538.43 0.2Q535.78 0.2 534.38-1.38 532.98-2.95 532.98-5.45L532.98-5.45 532.98-24.9 538.68-24.9 538.68-5.95Q538.68-4.8 539.03-4.4 539.38-4 540.08-4L540.08-4Q540.28-4 540.51-4 540.73-4 540.93-4.05L540.93-4.05Q541.13-4.05 541.38-4.1L541.38-4.1 541.98-0.5Q541.63-0.3 541.08-0.15L541.08-0.15Q540.63 0 539.96 0.1 539.28 0.2 538.43 0.2L538.43 0.2ZM535.93-36Q537.53-36 538.38-35.05 539.23-34.1 539.23-32.6L539.23-32.6Q539.23-31.1 538.36-30.1 537.48-29.1 535.78-29.1L535.78-29.1Q534.18-29.1 533.31-30.08 532.43-31.05 532.43-32.45L532.43-32.45Q532.43-34 533.31-35 534.18-36 535.93-36L535.93-36ZM544.48-11.85Q544.48-15.2 545.41-17.75 546.33-20.3 547.96-22.03 549.58-23.75 551.78-24.63 553.98-25.5 556.53-25.5L556.53-25.5Q558.78-25.5 560.36-24.95 561.93-24.4 562.93-23.45 563.93-22.5 564.41-21.2 564.88-19.9 564.88-18.4L564.88-18.4Q564.88-16.6 563.88-14.98 562.88-13.35 561.01-12.13 559.13-10.9 556.48-10.18 553.83-9.45 550.53-9.4L550.53-9.4Q550.68-8.25 551.01-7.23 551.33-6.2 551.96-5.43 552.58-4.65 553.58-4.2 554.58-3.75 556.08-3.75L556.08-3.75Q557.18-3.75 558.43-4 559.68-4.25 560.73-4.6L560.73-4.6Q561.98-5 563.18-5.5L563.18-5.5 564.68-1.95Q563.38-1.3 561.88-0.8L561.88-0.8Q560.58-0.35 558.88 0 557.18 0.35 555.28 0.35L555.28 0.35Q552.38 0.35 550.33-0.53 548.28-1.4 546.98-3 545.68-4.6 545.08-6.85 544.48-9.1 544.48-11.85L544.48-11.85ZM556.08-21.6Q554.43-21.6 553.36-20.83 552.28-20.05 551.63-18.82 550.98-17.6 550.71-16.07 550.43-14.55 550.38-13L550.38-13Q552.78-13.1 554.46-13.63 556.13-14.15 557.18-14.93 558.23-15.7 558.71-16.6 559.18-17.5 559.18-18.4L559.18-18.4Q559.18-19.85 558.33-20.73 557.48-21.6 556.08-21.6L556.08-21.6ZM592.13-1.4L587.68 0.4Q587.58 0.35 587.23-0.08 586.88-0.5 586.45-1.25 586.03-2 585.63-3.13 585.23-4.25 585.13-5.75L585.13-5.75Q584.28-2.75 582.4-1.23 580.53 0.3 577.33 0.3L577.33 0.3Q574.98 0.3 573.25-0.58 571.53-1.45 570.38-3.08 569.23-4.7 568.68-7 568.13-9.3 568.13-12.1L568.13-12.1Q568.13-14.95 569-17.38 569.88-19.8 571.45-21.55 573.03-23.3 575.23-24.3 577.43-25.3 580.08-25.3L580.08-25.3Q580.98-25.3 582-25.2 583.03-25.1 584.03-24.95L584.03-24.95 584.03-36.25 589.73-35.25 589.73-12.05Q589.73-9.05 590.08-7.08 590.43-5.1 590.88-3.88 591.33-2.65 591.7-2.1 592.08-1.55 592.13-1.4L592.13-1.4ZM578.28-3.75Q579.53-3.75 580.58-4.6 581.63-5.45 582.4-6.83 583.18-8.2 583.6-9.95 584.03-11.7 584.03-13.55L584.03-13.55 584.03-20.75Q583.53-20.9 582.53-21.1 581.53-21.3 580.73-21.3L580.73-21.3Q578.83-21.3 577.6-20.65 576.38-20 575.63-18.85 574.88-17.7 574.58-16.1 574.28-14.5 574.28-12.6L574.28-12.6Q574.28-10.85 574.38-9.25 574.48-7.65 574.9-6.43 575.33-5.2 576.13-4.48 576.93-3.75 578.28-3.75L578.28-3.75Z" opacity="1" transform="matrix(1,0,0,1,0,0)" fill="#ffffff" class="undefined-text-1" data-fill-palette-color="secondary" id="text-1"></path></svg></g></svg></g></svg></g></svg></g><g transform="matrix(1,0,0,1,0,0.21523947187308323)"><svg viewBox="0 0 120.12129726391159 86.09578874923147" height="86.09578874923147" width="120.12129726391159"><g><svg xmlns="http://www.w3.org/2000/svg" viewBox="2 11 60 43.004425048828125" x="0" y="0" height="86.09578874923147" width="120.12129726391159" class="icon-icon-0" data-fill-palette-color="accent" id="icon-0"><g fill="#ffffff" data-fill-palette-color="accent"><rect x="52.762" y="30.848" width="2" height="2.422" transform="translate(-8.198 40.95) rotate(-38.974)" fill="#ffffff" data-fill-palette-color="accent"></rect><rect x="48.143" y="22.947" width="2" height="6.812" transform="translate(-5.637 36.775) rotate(-38.974)" fill="#ffffff" data-fill-palette-color="accent"></rect><rect x="19" y="36" width="2" height="2" fill="#ffffff" data-fill-palette-color="accent"></rect><path d="M43 19H59a3 3 0 0 0 3-3V12a1 1 0 0 0-1-1H3a1 1 0 0 0-1 1v4a3 3 0 0 0 3 3h8v1a3 3 0 0 0 2 2.816V44.1a5 5 0 1 0 5 7.868 4.954 4.954 0 0 0 8 0A4.992 4.992 0 1 0 33 44.1V22.816A3 3 0 0 0 35 20V19h2v1a3 3 0 0 0 3 3c0.087 0 0.168-0.018 0.253-0.026l12.92 16.847A4.955 4.955 0 0 0 52 43a5 5 0 1 0 5-5 4.936 4.936 0 0 0-2.266 0.568L42.12 22.121A2.993 2.993 0 0 0 43 20ZM14.5 49A1.5 1.5 0 1 1 16 47.5 1.5 1.5 0 0 1 14.5 49ZM20 46.031a4.994 4.994 0 0 0-3-1.93V22.816A3 3 0 0 0 19 20V19h2v1a3 3 0 0 0 2 2.816V44.1A4.994 4.994 0 0 0 20 46.031ZM23.5 49A1.5 1.5 0 1 1 25 47.5 1.5 1.5 0 0 1 23.5 49ZM28 46.031a4.994 4.994 0 0 0-3-1.93V22.816A3 3 0 0 0 27 20V19h2v1a3 3 0 0 0 2 2.816V44.1A4.994 4.994 0 0 0 28 46.031ZM30.5 49A1.5 1.5 0 1 1 32 47.5 1.5 1.5 0 0 1 30.5 49Zm28-9A1.5 1.5 0 1 1 57 41.5 1.5 1.5 0 0 1 58.5 40Z" fill="#ffffff" data-fill-palette-color="accent"></path><path d="M41.714 49.562l0.338 1.971q1-0.171 2.021-0.414l-0.463-1.945Q42.658 49.4 41.714 49.562Z" fill="#ffffff" data-fill-palette-color="accent"></path><path d="M49.076 47.272l0.844 1.815c0.622-0.29 1.243-0.606 1.846-0.939L50.8 46.4C50.236 46.709 49.657 47 49.076 47.272Z" fill="#ffffff" data-fill-palette-color="accent"></path><path d="M37.87 49.962l0.072 2c0.683-0.024 1.377-0.072 2.064-0.144l-0.207-1.99C39.157 49.894 38.509 49.938 37.87 49.962Z" fill="#ffffff" data-fill-palette-color="accent"></path><path d="M45.473 48.662l0.591 1.91c0.654-0.2 1.311-0.43 1.954-0.677L47.3 48.027C46.7 48.259 46.083 48.473 45.473 48.662Z" fill="#ffffff" data-fill-palette-color="accent"></path><rect x="11" y="40" width="2" height="2" fill="#ffffff" data-fill-palette-color="accent"></rect><rect x="27" y="40" width="2" height="2" fill="#ffffff" data-fill-palette-color="accent"></rect></g></svg></g></svg></g></svg></g></svg><rect width="395.52" height="62.8641760575424" fill="none" stroke="none" visibility="hidden"></rect></g></svg></g></svg>